<svg id="Layer_1" data-name="Layer 1" xmlns="http://www.w3.org/2000/svg" xmlns:xlink="http://www.w3.org/1999/xlink" viewBox="0 0 307.6 341.6"><defs><style>.cls-1{fill:none;}.cls-2{clip-path:url(#clip-path);}.cls-3{clip-path:url(#clip-path-2);}.cls-4{clip-path:url(#clip-path-3);}.cls-5{isolation:isolate;}</style><clipPath id="clip-path"><path class="cls-1" d="M191.2,11.2s-3-6.1-9.5-4.8c0,0-14,9.2-12.9,10.6l-22-6.8-10.7,5.1s-10.6,4.1-9.9,11.2v6.8L122.1,35v3.4h-2.7v4.4l2.4,1.7-3.6,2.2h4l-4,4s-3.6,11.9,0,13.3l2.3,7.1,3.1,4.1.3,4.4-1,7.5v8.5l1.4,4.1,3.4,2v9.2l3.7,8.2s-3.1,7.1-.3,8.5,0,5.1,0,5.1-6.5-3.1-2,6.1l-3.1,7.1-56.5,18-14,6.8s-10.9,7.5-14.3,21.1l-4.1,5.1-17,65.7-14,57.2L3.7,338.9v2.6H226.3l-1.4-27,1.3-.8,20,12.8s2.5,2.5,16.8,2.1l19.7-16.3.8-3.9,16.3-21.7s4.2-8.2,0-19.6c0,0-3.8-9.7-9.6-13.4L282,249l-6.3-9.2-11-53.5s-4.2-7.2-8.6-7.5l-7.8-6.8-25.2-5.1-10.9-6.7L198,150s-3.1-17.7-7.2-17.2l.6-7,.9-5.9s6.8-11.3,6.7-15.9c0,0,10.5-1.1,4.9-18,0,0,2.8-5.6-.4-7.9l-.3-4.2,5.7-10s2.7-2.2.5-6,1.6-5,1.6-5,2.7,3,3-4.7l-7.5-16.9-.6-7.6-10.1-14L193,15Z"/></clipPath><clipPath id="clip-path-2"><path class="cls-1" d="M300.3,267.5c-.3-.8-5.6-13.6-17.8-17.9a1.38,1.38,0,0,1-.4-.3l-6.1-8.9c-.1-.1-.1-.2-.2-.3l-3.6-18.3-6.4-32.4v-.2c-.3-.9-4-10.3-8.9-10-.2,0-.4-.1-.6-.1l-9.2-7.7a.52.52,0,0,0-.4-.2l-25.1-5.6h-.1a33.55,33.55,0,0,1-9.2-5.2l-14.2-10.2a2.09,2.09,0,0,1-.4-.6c-.2-2-1.1-11.5-6.8-16.6a.83.83,0,0,1-.3-.8l1.9-12.2c0-.1.1-.2.1-.3.6-1.1,5-8.7,6.6-15.6a.85.85,0,0,1,.8-.7c1.5-.1,5-.8,5.3-6.8v-.1c.2-.7,1.7-7.2-1.2-10.4a1,1,0,0,1-.2-.9c.5-1.3,1.7-4.8,0-6.4-.2-.1-.2-.3-.2-.6l-.3-4.2a.9.9,0,0,1,.1-.5l5.4-9.3a.31.31,0,0,0,.1-.2c.5-.4,2.3-2.4.5-6a1.09,1.09,0,0,1-.1-.5l.7-3.8a.82.82,0,0,1,1-.7.68.68,0,0,1,.6.4h0a.93.93,0,0,0,1.2.3,1,1,0,0,0,.4-.5,17,17,0,0,0,.9-5,.6.6,0,0,0-.1-.4l-7.5-16.5a.37.37,0,0,1-.1-.3l-.4-6.8c0-.2-.1-.3-.2-.5l-10.1-14c-.1-.1-4.3,1.7-4.6,1.6l-5.3-6.8c-.1-.1-.4,0-.6.1L172.5,12c-.2.1-.5.1-.3,0l-5,3.6c-.7,0-9-2.2-9.3-2.1l-11.2-3.3L136,13.7c-.1,0-.2,0-.2.1-1.1.1-10.7,1-11.9,11.5,0,.1-.1.2-.1.3l-4.7,8.6c0,.1-.1.1-.1.2l-1.7,2.1c-.2.1-.2.3-.2.5v6.3a.6.6,0,0,0,.1.4l1.2,2a.8.8,0,0,1-.2,1l-3.8,3.8a.76.76,0,0,0-.2.5c-.3,2-1.9,13.7,2,14.5a.9.9,0,0,1,.6.6l1.8,6c.1.1.1.3.2.4l1.8,1.6a1.14,1.14,0,0,1,.3.8l-.7,5.6s-4.1,27.2,3.9,24.1a1,1,0,0,1,1.2.6l1.4,8.7c0,.2.1.2.2.4l3,4a.79.79,0,0,1-.1,1.1,4.88,4.88,0,0,0-.5,6.8,1,1,0,0,1,.2.7l-.6,3a.85.85,0,0,1-.8.7c-1.6.1-5.4.9-1.6,6.8a1.39,1.39,0,0,1,0,.9l-3.3,5.8a1,1,0,0,1-.5.4L85.3,157.2h-.1c-1.1.2-28,6.7-31.5,11.8-.1.1-.2.3-.4.3-1.6.7-11.4,5.9-19.4,31.2L23.1,241,12.7,283l-8,31.7v.1L1.2,342.3a.82.82,0,0,0,.8.9h.1l223.6,2.4a.9.9,0,0,0,.9-.9l-1.5-29.9a.82.82,0,0,1,.8-.9.75.75,0,0,1,.5.1l19.8,12.7c.1,0,.1.1.2.1,1.2.4,13.8,5,19.6.4,0,0,18.8-12.7,17.8-18.5a.48.48,0,0,1,.2-.6l16.2-21V287c.2-.4,3.8-6,0-19.6C300.3,267.6,300.3,267.5,300.3,267.5Z"/></clipPath><clipPath id="clip-path-3"><rect class="cls-1" x="-199.1" y="-21.6" width="514.6" height="548.5"/></clipPath></defs><g class="cls-2"><g class="cls-3"><g class="cls-4"><image class="cls-5" width="2729" height="2909" transform="translate(-199.08 -21.64) scale(0.19)" xlink:href="../../../../Downloads/IMG_3460/IMG_3460.jpg"/></g></g></g></svg>